<?xml version="1.0" encoding="UTF-8"?>
<svg version="1.1" viewBox="0 0 32 32" xmlns="http://www.w3.org/2000/svg">
<title>Icons / Approve</title>
<desc>Created with Sketch.</desc>
<g fill-rule="evenodd">
<circle cx="16" cy="16" r="16" fill="#7BEFB2" fill-rule="nonzero"/>
<path d="m12.232 24c-0.40066 0-0.78799-0.12198-1.12-0.35262-0.174-0.12065-0.326-0.26863-0.45333-0.43861l-2.558-3.4102c-0.079999-0.10665-0.114-0.23864-0.095332-0.37062 0.019333-0.13198 0.088666-0.2493 0.19533-0.32929 0.087333-0.065325 0.19066-0.099988 0.3-0.099988 0.15667 0 0.306 0.074657 0.4 0.19998l2.5593 3.4116c0.062666 0.084656 0.138 0.15731 0.22333 0.21664 0.16333 0.11332 0.35333 0.17331 0.55066 0.17331 0.057333 0 0.11533-0.0053327 0.17267-0.015331 0.254-0.045328 0.47466-0.18731 0.62199-0.39928l10.063-14.372c0.092666-0.13332 0.246-0.21331 0.40933-0.21331 0.10267 0 0.202 0.031329 0.286 0.089989 0.11 0.076657 0.18266 0.19131 0.206 0.32263 0.023333 0.13132-0.0059999 0.26397-0.082666 0.37395l-10.061 14.371c-0.29933 0.42995-0.74933 0.71858-1.2667 0.81123-0.11533 0.020664-0.23333 0.031329-0.35 0.031329z" fill="#236C46"/>
</g>
</svg>
