<?xml version="1.0" encoding="UTF-8"?>
<svg version="1.1" viewBox="0 0 32 32" xmlns="http://www.w3.org/2000/svg">
<title>Icons / Check</title>
<desc>Created with Sketch.</desc>
<g fill="none" fill-rule="evenodd">
<path d="m8.4633 32c-0.80133 0-1.576-0.24397-2.24-0.70525-0.348-0.2413-0.65199-0.53727-0.90666-0.87722l-5.116-6.8205c-0.16-0.21331-0.228-0.47727-0.19066-0.74124 0.038666-0.26397 0.17733-0.4986 0.39066-0.65858 0.17467-0.13065 0.38133-0.19998 0.59999-0.19998 0.31333 0 0.61199 0.14931 0.79999 0.39995l5.1186 6.8231c0.12533 0.16931 0.276 0.31463 0.44666 0.43328 0.32666 0.22664 0.70666 0.34662 1.1013 0.34662 0.11467 0 0.23066-0.010665 0.34533-0.030663 0.508-0.090655 0.94932-0.37462 1.244-0.79857l20.125-28.744c0.18533-0.26663 0.492-0.42661 0.81866-0.42661 0.20533 0 0.404 0.062659 0.57199 0.17998 0.22 0.15331 0.36533 0.38262 0.412 0.64525 0.046666 0.26263-0.012 0.52793-0.16533 0.74791l-20.122 28.742c-0.59866 0.85989-1.4987 1.4372-2.5333 1.6225-0.23066 0.041328-0.46666 0.062659-0.69999 0.062659z" fill="#1e1f1d"/>
</g>
</svg>
