<?xml version="1.0" encoding="UTF-8"?>
<svg version="1.1" viewBox="0 0 32 32" xmlns="http://www.w3.org/2000/svg">
<title>Icons / Date</title>
<desc>Created with Sketch.</desc>
<g fill="none" fill-rule="evenodd">
<path d="m3.8125 31c-1.5512 0-2.8125-1.2612-2.8125-2.8125v-20.625c0-1.5512 1.2612-2.8125 2.8125-2.8125h4.6875v-2.8125c0-0.5175 0.42-0.9375 0.9375-0.9375s0.9375 0.42 0.9375 0.9375v2.8125h11.25v-2.8125c0-0.5175 0.42-0.9375 0.9375-0.9375s0.9375 0.42 0.9375 0.9375v2.8125h4.6875c1.5512 0 2.8125 1.2612 2.8125 2.8125v20.625c0 1.5512-1.2612 2.8125-2.8125 2.8125h-24.375zm-0.9375-2.8125c0 0.5175 0.42 0.9375 0.9375 0.9375h24.375c0.5175 0 0.9375-0.42 0.9375-0.9375v-14.062h-26.25v14.062zm26.25-15.938v-4.6875c0-0.5175-0.42-0.9375-0.9375-0.9375h-4.6875v1.875c0 0.5175-0.42 0.9375-0.9375 0.9375s-0.9375-0.42-0.9375-0.9375v-1.875h-11.25v1.875c0 0.5175-0.42 0.9375-0.9375 0.9375s-0.9375-0.42-0.9375-0.9375v-1.875h-4.6875c-0.5175 0-0.9375 0.42-0.9375 0.9375v4.6875h26.25z" fill="#1e1f1d"/>
</g>
</svg>
