<svg viewBox="0 0 32 32" xmlns="http://www.w3.org/2000/svg">
  <path
    d="M31 3c.532 0 .972.395 1 .9v3.71a.944.944 0 0 1-.533.849l-15.013 7.435a1.047 1.047 0 0 1-.92 0l-15-7.435A.944.944 0 0 1 0 7.61V3.9C.03 3.394.468 3 1 3h30zm-1 4.04V4.85H2v2.19l14 6.941 14-6.94zm.533 5.085v-.013c.312-.159.687-.148.987.029.3.177.483.493.48.833v15.061c0 .533-.448.965-1 .965H1c-.532.001-.972-.4-1-.913V12.975a.96.96 0 0 1 .485-.824c.3-.174.672-.184.982-.026L16 19.449l14.533-7.324zM30 23.247V14.57l-8 4.054 8 4.621zm-20-4.622-8-4.054v8.675l8-4.62zm-8 8.496h28.013v-1.635L19.88 19.668l-3.413 1.712a1.032 1.032 0 0 1-.92 0l-3.414-1.712L2 25.486v1.635z"
    fill="#1e1f1d" fill-rule="evenodd" />
</svg>