<?xml version="1.0" encoding="UTF-8"?>
<svg version="1.1" viewBox="0 0 32 32" xmlns="http://www.w3.org/2000/svg">
<title>Icons / Password</title>
<desc>Created with Sketch.</desc>
<g fill="none" fill-rule="evenodd">
<path d="m7 32c-1.6547 0-3-1.3453-3-3v-14c0-1.6547 1.3453-3 3-3h1v-4c0-4.4107 3.5893-8 8-8s8 3.5893 8 8v4h1c1.6547 0 3 1.3453 3 3v14c0 1.6547-1.3453 3-3 3h-18zm0-18c-0.552 0-1 0.448-1 1v14c0 0.552 0.448 1 1 1h18c0.552 0 1-0.448 1-1v-14c0-0.552-0.448-1-1-1h-18zm15-2v-4c0-3.308-2.692-6-6-6s-6 2.692-6 6v4h12zm-10.5 9c-0.82843 0-1.5-0.67157-1.5-1.5s0.67157-1.5 1.5-1.5 1.5 0.67157 1.5 1.5-0.67157 1.5-1.5 1.5zm5 0c-0.82843 0-1.5-0.67157-1.5-1.5s0.67157-1.5 1.5-1.5 1.5 0.67157 1.5 1.5-0.67157 1.5-1.5 1.5zm4 0c-0.82843 0-1.5-0.67157-1.5-1.5s0.67157-1.5 1.5-1.5 1.5 0.67157 1.5 1.5-0.67157 1.5-1.5 1.5zm-9 5c-0.82843 0-1.5-0.67157-1.5-1.5s0.67157-1.5 1.5-1.5 1.5 0.67157 1.5 1.5-0.67157 1.5-1.5 1.5zm5 0c-0.82843 0-1.5-0.67157-1.5-1.5s0.67157-1.5 1.5-1.5 1.5 0.67157 1.5 1.5-0.67157 1.5-1.5 1.5zm4 0c-0.82843 0-1.5-0.67157-1.5-1.5s0.67157-1.5 1.5-1.5 1.5 0.67157 1.5 1.5-0.67157 1.5-1.5 1.5z" fill="#1e1f1d"/>
</g>
</svg>
