<?xml version="1.0" encoding="UTF-8"?>
<svg version="1.1" viewBox="0 0 160 38" xmlns="http://www.w3.org/2000/svg">
<title>Glowday Logo</title>
<desc>Created with Sketch.</desc>
<g fill="none" fill-rule="evenodd">
<g transform="translate(-136 -33)">
<rect width="1440" height="100" fill="none" fill-rule="nonzero"/>
<rect width="39" height="38" fill="#fff" fill-rule="nonzero"/>
<path d="m179.5 34.306c2e-3 -0.0011057 3e-3 -0.0022114 4e-3 -0.003317h-4e-3v0.003317z" fill="#1D1D1B"/>
<g transform="translate(136 33.496)" fill="#2D2C2C" fill-rule="nonzero">
<path id="Path" d="m29.431 20.533v-20.533l-8.4314 2.4094v0.095794c2.5039-0.72054 2.9765 0.15619 2.9765 2.4407v15.587c0 3.3486-0.26471 4.1316-2.5647 4.1316v0.062474h10.588v-0.062474c-2.302 0-2.5686-0.78301-2.5686-4.1316z"/>
<path id="Path" d="m82 8.9998h-6.9079v0.083172c3.652 0 3.5397 1.7689 1.8842 5.1526l-2.4496 5.0309-2.7415-6.1892c-1.0207-2.1341-1.5351-3.9943 0.89002-3.9943v-0.091286h-10.525v0.091286c1.3493 0 1.7474 0.94532 3.0355 3.5378l0.75325 1.5965-2.4823 5.0998-2.8987-6.2318c-1.0207-2.1341-1.7188-3.9943 0.58382-3.9943v-0.091286h-11.142v0.083172c1.9638 0 2.668 0.94532 3.9582 3.5378l6.5649 13.23 5.5524-11.372 5.4932 11.372 5.5831-11.433c2.023-4.1383 2.6354-5.3352 4.8482-5.3352v-0.083172z"/>
<path id="Path" d="m41.482 7.8678c-5.3282 0-9.4815 3.5796-9.4815 8.4799 0 4.451 3.481 7.8237 8.1435 8.3692-1.5056-1.352-1.5056-5.1908-1.5056-8.3587 0-3.8011 0-7.8384 2.8436-7.8384 2.8784 0 2.8784 4.0373 2.8784 7.8384 0 3.1763 0 7.0171-1.523 8.3692 4.6929-0.5475 8.1631-3.9202 8.1631-8.3692-0.0021757-4.9107-4.1555-8.4904-9.5185-8.4904z"/>
<path id="Path" d="m21.994 14.612h-9.994v0.10037c0.60253 0.26296 1.0886 0.58613 1.2653 0.97154 0.030127 0.064234 0.058245 0.13248 0.084354 0.20073 0.237 0.49781 0.33541 1.1602 0.37558 2.0073 0 0.14453 0.014059 0.27902 0.016068 0.40146 0.012051 0.4396 0.042177 0.92537 0.048202 1.4513v0.086314c0.024118 1.227-0.092461 2.4528-0.34746 3.6533-0.075266 0.41576-0.21628 0.81689-0.41775 1.1883-0.0088554 0.017411-0.018922 0.03418-0.030127 0.050183 0 0-0.042177 0.05219 1.1669-0.18467 1.2091-0.23686 1.912-0.45164 2.6772-0.66843l2.8379 0.75475v-5.7309c0-2.8965 0.22093-4.1812 2.3238-4.1812v-0.088322l-0.0060253-0.012044z"/>
<path id="a" d="m11.816 2.2492s-0.43093-0.012666-1.1302 0.042219c-0.060981 0-0.69925 0.061217-0.82324 0.075994l-0.62201 0.09077c-0.099602 0.016888-0.69722 0.13721-0.74193 0.14988-3.5999 0.76416-8.4987 4.1121-8.4987 10.536v0.42219c-0.013669 1.7072 0.34345 3.3955 1.0448 4.9396 0.20134 0.43816 0.43158 0.86136 0.68908 1.2666 0.17075 0.26739 0.35233 0.52562 0.54476 0.77471 1.3497 1.7479 2.8925 3.0461 5.1326 3.7511 0.31846 0.10132 0.64504 0.18998 0.97976 0.26598 0.16668 0.037997 0.3354 0.071772 0.50614 0.10344 0 0 0.23986 0.037997 0.50614 0.059106 0.79478 0.040108 0.98789-1.4122 1.0163-2.0075 0-0.080216 0.010164-0.26387 0.010164-0.26387 0.038621-1.3974-0.13213-2.7442-0.31507-2.9426l-0.026425-0.025331c-0.070583-0.068459-0.16178-0.10948-0.25815-0.1161h-0.018294c-0.069112 0-0.24189 0.010555-0.25205 0.012666l-0.14839 0.016888c-0.38061 0.06345-0.75579 0.15803-1.122 0.28287-0.66876 0.26176-1.116 0.42219-1.6262 0.21109-1.0529-0.42219-1.1038-1.0449-0.93707-1.4777 0.16668-0.43274 0.34353-0.96259-0.095537-1.1948-0.49395-0.26387-0.22766-0.67128-0.050817-0.83171 0.17684-0.16043 0.51224-0.41163 0.51224-0.41163s-1.1302-0.65228-0.69315-1.0069c0.25536-0.22378 0.41113-0.54655 0.43093-0.89293 0.02236-0.28075-0.20327-0.3863-0.72567-0.78527-0.60981-0.47707-0.39231-0.70928 0.36182-1.3827 0.50208-0.44752 1.9107-1.712 1.862-2.8899-0.020327-0.42008 0.1057-5.7671 4.7809-5.7671 1.4656 0 2.1547 0.32931 2.1547 1.2096-0.019009 0.95107-0.5667 1.8046-1.4046 2.189 0.091471 1.9991 1.4656 2.9173 2.9942 2.9173 1.5875 0 3.1466-1.142 3.1466-3.139-0.0040654-3.1031-3.7015-4.1818-7.1836-4.1818z"/>
<path d="m131.16 13.393c1.6562-3.5033 1.7153-5.4477-1.9152-5.4477v-0.077525h6.7552v0.077525c-2.0682 0-2.6801 1.2446-4.7013 5.5232l-5.5763 11.803c-1.2401 2.6275-2.9717 6.1999-6.5554 6.1999-2.7576 0-4.167-1.9193-4.167-3.7149 0-1.5421 1.0422-2.9879 3.1553-2.9879 1.5318 0 2.9105 0.91145 3.0023 2.8936-0.73427 0.25353-1.4094 0.88211-1.4094 1.8271 0 0.84859 0.53642 1.2257 1.2095 1.2257 1.2421 0 3.0941-1.9339 4.6728-5.6321l-6.4636-13.471c-1.287-2.6736-1.9907-3.6667-3.9528-3.6667v-0.077525h11.422v0.077525c-2.421 0-1.8846 1.936-0.88928 4.1403l2.9575 6.5142 2.4557-5.2068z"/>
<path d="m99.984 23.467c0.018061 0.10327-1.1719 0.1673-1.3044 0.15078-0.30401-0.028305-0.58842-0.16662-0.8027-0.39037-0.46758-0.51016-0.5037-1.3384-0.52778-1.9993-0.032108-0.91085-0.010034-1.83-0.010034-2.7408v-18.488l-8.619 2.3876 0.030101 0.078486c2.5907-0.69811 2.9841 0.35525 3.0101 2.4351l0.044149 3.474c-0.68545-0.23629-1.4024-0.3617-2.1252-0.37178-5.2437 0-8.6792 4.4056-8.6792 9.3378 0 4.4056 2.7713 7.3818 5.9661 7.3818 1.5793 0 2.681-0.59071 3.8128-1.9828-0.070889 0.069781-0.14894 0.13142-0.23278 0.18382-0.18261 0.1399-0.38588 0.24868-0.60203 0.32221-0.64618 0.20654-1.2803-0.09501-1.7459-0.55147-0.24372-0.2392-0.44716-0.51838-0.60203-0.82617-0.16247-0.32905-0.28964-0.67533-0.37928-1.0327-0.093054-0.37816-0.16011-0.76259-0.20068-1.1504-0.048162-0.39037-0.076257-0.7828-0.090304-1.1773s-0.020068-0.74149-0.020068-1.1133v-0.97075c0-5.7398 0.78464-8.2824 2.9841-8.2824 1.7479 0 1.8703 1.1174 1.8703 3.629v9.629c0 0.16317 0 0.32427 0.014047 0.48538 0.014047 0.1611 0.010034 0.32014 0.020068 0.48124 0 0.09914 0.018061 0.20654 0.032108 0.29742 0.031474 0.17374 0.075067 0.34493 0.13044 0.51223 0.044898 0.15448 0.10473 0.30394 0.1786 0.44613 0.069368 0.13399 0.15427 0.25883 0.25285 0.37178 0.09794 0.11369 0.20993 0.21368 0.33312 0.29742 0.13205 0.09013 0.27338 0.16494 0.42142 0.22307 0.1678 0.064785 0.34114 0.11319 0.51774 0.14458 0.20346 0.038248 0.40937 0.06103 0.61608 0.068159h0.25285c1.2362 0 2.9981-0.38623 5.4704-1.1773l-0.016054-0.082617z"/>
<path d="m119 23.469c0.010244 0.056268-0.9194 0.16672-1.0165 0.1688-0.25066 0.012091-0.50107-0.028355-0.73545-0.11879-0.3883-0.18432-0.67416-0.53464-0.77884-0.95447-0.1578-0.6118-0.22327-1.2441-0.19419-1.8756v-8.0275c0-3.6324-3.5533-4.7932-7.4372-4.7932-2.5617 0-7.8049 0.50016-7.8049 4.3347 0 2.0027 1.4275 2.9176 2.8922 2.9176 1.411 0 2.6856-0.84402 2.7765-2.6279-0.65282-0.29801-1.0867-1.042-1.0867-1.8943-0.001806-0.70607 0.27856-1.3831 0.77775-1.878 0.49918-0.49493 1.175-0.76602 1.8748-0.752 2.2188 0 2.2188 2.3945 2.2188 4.243v1.8756c-3.512 2.4404-10.486 1.5963-10.486 6.5417 0 2.6925 1.8593 4.0992 4.7763 4.0992 0.67969-0.002527 1.3557-0.10144 2.008-0.29384 0.63414-0.17731 1.239-0.44764 1.7953-0.80234 0.52253-0.35878 0.98964-0.79347 1.3862-1.29-0.07183 0.070868-0.15155 0.13311-0.23758 0.18548-0.48473 0.38488-1.1343 0.48459-1.7106 0.26258-0.42051-0.18377-0.75893-0.51774-0.9503-0.9378-0.030989-0.064604-0.059911-0.13129-0.084702-0.19798-0.11455-0.2938-0.19766-0.5991-0.2479-0.9107-0.049226-0.29359-0.078903-0.59019-0.088833-0.88778v-0.29176c0-3.6303 1.6527-3.9429 3.8467-5.383v7.1627c0 0.16464 0 0.32927 0.016528 0.49391 0.016527 0.16464 0 0.3251 0.020658 0.48557 0 0.10212 0.018593 0.2084 0.033054 0.30218 0.024349 0.17844 0.062337 0.35472 0.11362 0.52725 0.046589 0.15641 0.10817 0.30786 0.18386 0.45223 0.071897 0.13605 0.16001 0.26272 0.26237 0.3772 0.10164 0.11467 0.21762 0.21554 0.345 0.3001 0.13594 0.092191 0.28227 0.16775 0.4359 0.22507 0.17285 0.065521 0.35125 0.11505 0.533 0.14796 0.21155 0.038462 0.42558 0.061446 0.64042 0.068772h0.2603c1.2788 0 3.0988-0.39179 5.6584-1.1941l0.004217-0.060436z"/>
</g>
</g>
</g>
</svg>