<svg width="31" height="30" xmlns="http://www.w3.org/2000/svg"><g stroke="#1e1f1d" stroke-width="1.62" fill="none" fill-rule="evenodd" stroke-linejoin="round"><path d="M25.0252 7.665c.2433.2116.3849.4936.417.7786.0322.285-.045.573-.2392.7964L13.3874 22.8323a1.0025 1.0025 0 0 1-.4293.2888l-5.2906 1.838.5227-5.9815a1.0017 1.0017 0 0 1 .224-.454L20.2369 4.923c.1942-.2234.4686-.34.7553-.3477.2868-.0078.5857.0931.829.3046l3.204 2.7852Z"/><path stroke-linecap="round" d="m18.7944 7.3651 3.738 3.2493M9.042 18.4033l3.7379 3.2493"/></g></svg>