<?xml version="1.0" encoding="UTF-8"?>
<svg width="40px" height="63px" viewBox="0 0 40 63" version="1.1" xmlns="http://www.w3.org/2000/svg" xmlns:xlink="http://www.w3.org/1999/xlink">
    <!-- Generator: Sketch 58 (84663) - https://sketch.com -->
    <title>Icons / Hourglass</title>
    <desc>Created with Sketch.</desc>
    <g id="Symbols-＠" stroke="none" stroke-width="1" fill="none" fill-rule="evenodd">
        <g id="Icons-/-Hourglass" fill="#1e1f1d">
            <path d="M36.2795602,-2.84217094e-14 C38.2881654,-2.84217094e-14 39.5820011,2.0929573 38.7378035,3.8733416 L38.6601745,4.02512438 L24.0280345,30.6618689 C23.7703116,31.1313465 23.7445393,31.6911794 23.950667,32.1791913 L24.0279651,32.3389794 L38.6601316,58.9747975 C39.627706,60.7354327 38.4165421,62.8772966 36.4499427,62.9949305 L36.2795602,63 L3.72141566,63 C1.71206764,63 0.417916222,60.9072173 1.2621934,59.1266669 L1.33983017,58.974869 L15.9718225,32.3393685 C16.2296751,31.8689689 16.2554603,31.3090438 16.0493313,30.8215732 L15.9720324,30.6619887 L1.33986949,4.02520253 C0.37219635,2.26438768 1.58365273,0.122693449 3.55097053,0.00506909003 L3.72141566,-2.84217094e-14 L36.2795602,-2.84217094e-14 Z M36.2795602,0.974673948 L3.72141566,0.974673948 C2.44319245,0.974673948 1.61645317,2.29471 2.13141075,3.43052272 L2.19419487,3.55588959 L16.8264665,30.1928737 C17.2412268,30.9484166 17.2708525,31.8531752 16.9152881,32.6310867 L16.8263971,32.8082273 L2.19415193,59.4441886 C1.57862966,60.5642163 2.33773518,61.9242533 3.58129404,62.0199702 L3.72141566,62.0253261 L36.2795602,62.0253261 C37.5569738,62.0253261 38.383498,60.7051799 37.8685877,59.5694714 L37.8058098,59.444117 L23.1733904,32.8078382 C22.758764,32.0514365 22.7291478,31.1466165 23.08471,30.3696569 L23.1736004,30.1927539 L37.8058492,3.55581144 C38.4441035,2.39441963 37.6042854,0.974673948 36.2795602,0.974673948 Z M26.523814,17.1300896 C26.866525,17.1300896 27.0930727,17.4696417 26.9845001,17.7773537 L26.9502486,17.8534034 L20.512,29.485 L20.512,48.661 L28.3695326,48.6613766 C28.5180295,48.6613766 28.6566617,48.7289049 28.7482103,48.841892 L28.7971916,48.9149628 L34.3845479,59.1353938 C34.5484319,59.4351717 34.3607571,59.7959315 34.0397831,59.8496591 L33.9568888,59.8564816 L6.04252742,59.8564816 C5.70044456,59.8564816 5.47388629,59.5180527 5.5813879,59.2105372 L5.61534936,59.1345161 L11.229999,48.9140851 C11.3013489,48.7842057 11.4269354,48.6953 11.5697309,48.6692725 L11.6571771,48.6613766 L19.512,48.661 L19.5122643,29.5271832 C19.1957128,28.9553155 19.1097653,28.8000494 17.6391089,26.143274 C16.1532018,23.4589633 14.5982084,20.6498944 13.0501602,17.8534356 C12.8841838,17.5536089 13.0716002,17.1909662 13.3934426,17.1369492 L13.476577,17.1300896 L26.523814,17.1300896 Z" id="Combined-Shape"></path>
        </g>
    </g>
</svg>