<?xml version="1.0" encoding="UTF-8"?>
<svg version="1.1" viewBox="0 0 19 21" xmlns="http://www.w3.org/2000/svg">
<title>Groupblack</title>
<desc>Created with Sketch.</desc>
<g fill="none" fill-rule="evenodd">
<g id="a" transform="translate(-7 -6)" fill="#1e1f1d">
<g transform="translate(7.0003 -96)">
<g transform="translate(1 104)">
<path d="m14.483 10.495c0 2.203-1.786 3.988-3.988 3.988h-4.969c-2.203 0-3.989-1.785-3.989-3.988v-4.969c0-2.202 1.786-3.989 3.989-3.989h4.969c2.202 0 3.988 1.787 3.988 3.989v4.969zm-3.398-10.495h-6.149c-2.726 0-4.936 2.21-4.936 4.936v6.149c0 2.725 2.21 4.935 4.936 4.935h6.149c2.726 0 4.935-2.21 4.935-4.935v-6.149c0-2.726-2.209-4.936-4.935-4.936z"/>
<path d="m8.2252 10.577c-1.403 0-2.54-1.138-2.54-2.539 0-1.403 1.137-2.539 2.54-2.539 1.401 0 2.538 1.136 2.538 2.539 0 1.401-1.137 2.539-2.538 2.539m0-6.759c-2.331 0-4.221 1.889-4.221 4.22 0 2.33 1.89 4.22 4.221 4.22 2.33 0 4.22-1.89 4.22-4.22 0-2.331-1.89-4.22-4.22-4.22"/>
<path d="m13.226 3.7528c0 0.593-0.481 1.072-1.074 1.072-0.592 0-1.072-0.479-1.072-1.072s0.48-1.074 1.072-1.074c0.593 0 1.074 0.481 1.074 1.074"/>
</g>
</g>
</g>
</g>
</svg>
