<svg width="39" height="38" xmlns="http://www.w3.org/2000/svg">
  <path d="M38.178 20.077h.005-.005v.157c-3.71 0-4.096 2.269-4.1 7.38v.102c.002.15.012.903.012 1.045 0 .097-.007.188-.01.283l.015 8.683-5.005-1.33c-1.35.38-2.595.76-4.725 1.178-2.13.419-2.057.327-2.057.327s.02-.03.053-.088c.321-.525.56-1.28.735-2.1.32-1.348.613-3.412.613-6.446v-.151c-.013-.93-.065-1.786-.087-2.561-.004-.211-.012-.448-.027-.702-.071-1.484-.246-2.653-.663-3.534a6.172 6.172 0 00-.148-.353c-.313-.68-1.181-1.25-2.232-1.715v-.175h2.482v-.002h15.144v.002zM20.608.002c6.07 0 12.511 1.81 12.511 7.028 0 3.354-2.715 5.271-5.484 5.271-2.662 0-5.058-1.544-5.217-4.898 1.277-.586 2.449-1.917 2.449-3.674 0-1.477-1.202-2.028-3.757-2.028-8.136 0-8.359 8.963-8.327 9.696.085 1.977-2.37 4.098-3.244 4.849-1.315 1.128-1.712 1.519-.633 2.319.893.67 1.303.847 1.265 1.32-.026.326-.152 1.029-.75 1.496-.763.595 1.209 1.692 1.209 1.692s-.595.429-.893.69c-.31.27-.775.954.087 1.394.767.392.455 1.294.166 2.008-.29.714-.202 1.772 1.632 2.468.88.335 1.66.073 2.827-.367a12.837 12.837 0 011.953-.473l.015-.002c.013-.002.165-.021.259-.03a6.657 6.657 0 01.47-.02.724.724 0 01.45.194l.046.043c.318.323.616 2.592.548 4.94 0 0-.01.305-.018.441-.062 1-.397 3.436-1.785 3.37-.462-.038-.881-.1-.881-.1a23.333 23.333 0 01-2.59-.62c-3.902-1.183-6.59-3.363-8.943-6.295a17.664 17.664 0 01-2.15-3.416C.645 24.843 0 22.05 0 19.01c0 0 .01-.5.016-.723C.016 7.506 8.554 1.89 14.826.605a72.29 72.29 0 011.295-.248 68.18 68.18 0 011.082-.154 69.974 69.974 0 011.436-.13c1.218-.09 1.969-.07 1.969-.07z" fill="#1e1f1d" fill-rule="evenodd"/>
</svg>