<svg width="31" height="30" xmlns="http://www.w3.org/2000/svg"><g stroke="#1e1f1d" stroke-width="1.8673" fill="none" fill-rule="evenodd"><path d="M15.5 8c2.069 0 3.9413.838 5.2969 2.1903C22.159 11.5493 23 13.427 23 15.5s-.841 3.9508-2.2031 5.3097C19.4413 22.162 17.569 23 15.5 23s-3.9413-.838-5.2969-2.1903C8.841 19.4507 8 17.573 8 15.5s.841-3.9508 2.2031-5.3097C11.5587 8.838 13.431 8 15.5 8Z"/><path d="M15.5 13c.6886 0 1.3113.2786 1.7623.7268A2.4916 2.4916 0 0 1 18 15.5a2.4916 2.4916 0 0 1-.7377 1.7732A2.4927 2.4927 0 0 1 15.5 18a2.4927 2.4927 0 0 1-1.7623-.7268A2.4916 2.4916 0 0 1 13 15.5c0-.6921.2811-1.3194.7377-1.7732A2.4927 2.4927 0 0 1 15.5 13Z"/><g stroke-linecap="round"><path d="M15.5 7V4M15.5 26v-3"/></g><g stroke-linecap="round"><path d="M23.5 15h3M4.5 15h3"/></g><g stroke-linecap="round"><path d="m21.1569 9.3431 2.1213-2.1213M7.7218 22.7782l2.1213-2.1213"/><g><path d="m21.1569 20.6569 2.1213 2.1213M7.7218 7.2218l2.1213 2.1213"/></g></g></g></svg>