<?xml version="1.0" encoding="UTF-8"?>
<svg version="1.1" viewBox="0 0 18 20" xmlns="http://www.w3.org/2000/svg">
<title>Group 3</title>
<desc>Created with Sketch.</desc>
<g fill="none" fill-rule="evenodd">
<g transform="translate(-7 -5)" fill="#1D1D1B">
<g transform="translate(7 5)">
<g transform="translate(1 4)">
<path d="m5.136 13.271c6.162 0 9.531-5.105 9.531-9.532 0-0.145-2e-3 -0.289-0.01-0.433 0.656-0.473 1.223-1.064 1.671-1.734-0.599 0.265-1.247 0.445-1.922 0.527 0.691-0.416 1.22-1.072 1.472-1.853-0.646 0.382-1.364 0.663-2.127 0.813-0.613-0.651-1.481-1.059-2.445-1.059-1.851 0-3.35 1.501-3.35 3.35 0 0.263 0.03 0.518 0.086 0.765-2.783-0.142-5.254-1.474-6.905-3.501-0.287 0.495-0.453 1.069-0.453 1.683 0 1.161 0.591 2.188 1.491 2.789-0.55-0.017-1.067-0.168-1.518-0.419v0.042c0 1.624 1.155 2.978 2.686 3.285-0.279 0.076-0.576 0.118-0.882 0.118-0.216 0-0.426-0.023-0.63-0.062 0.428 1.332 1.664 2.301 3.129 2.327-1.146 0.9-2.591 1.435-4.161 1.435-0.269 0-0.535-0.016-0.799-0.047 1.483 0.951 3.243 1.506 5.136 1.506"/>
</g>
</g>
</g>
</g>
</svg>
