<?xml version="1.0" encoding="UTF-8"?>
<svg version="1.1" viewBox="0 0 32 32" xmlns="http://www.w3.org/2000/svg">
<title>Icons / Edit</title>
<desc>Created with Sketch.</desc>
<g fill="none" fill-rule="evenodd">
<path d="m1.9378 31c-0.24757 0-0.48888-0.1-0.66393-0.27501-0.23256-0.23251-0.32634-0.57627-0.24507-0.89504l2.2143-8.6316c0.007502-0.027501 0.025007-0.076253 0.03751-0.10125 0.0012503-0.0050002 0.010003-0.028751 0.021256-0.052502 0.048763-0.105 0.10628-0.19126 0.1763-0.26376 0.0025007-0.0050002 18.171-18.17 18.171-18.17 1.0353-1.0388 2.4156-1.6113 3.886-1.6113 1.4629 0 2.8383 0.56627 3.871 1.5963 0.003751 0.0037502 0.017505 0.018751 0.021256 0.021251 2.1243 2.1726 2.0918 5.6602-0.071269 7.7741 0 0-18.119 18.115-18.121 18.117-0.082522 0.081253-0.1763 0.14376-0.28883 0.19376-0.007502 0.0025001-0.023756 0.01-0.031258 0.0125-0.030008 0.015001-0.070019 0.030001-0.11128 0.040002l-8.6336 2.2138c-0.07627 0.021251-0.15504 0.031251-0.23256 0.031251zm1.3016-2.2401 5.514-1.4138-4.1011-4.0914-1.4129 5.5052zm7.337-2.2426 13.662-13.658-5.0926-5.0915-13.666 13.663 5.0964 5.0865zm14.988-14.984 1.2916-1.2913-5.0926-5.0915-1.2916 1.2913 5.0926 5.0915zm2.6157-2.6201c1.2878-1.4063 1.2678-3.5914-0.07627-4.9665-0.003751-0.0037502-0.017505-0.017501-0.021256-0.021251-0.68018-0.67753-1.5854-1.05-2.5482-1.05-0.91525 0-1.7767 0.33626-2.4444 0.95004l5.0901 5.0877z" fill="#C6A443"/>
</g>
</svg>
