<?xml version="1.0" encoding="UTF-8"?>
<svg version="1.1" viewBox="0 0 69 63" xmlns="http://www.w3.org/2000/svg">
<title>Icons / Briefcase</title>
<desc>Created with Sketch.</desc>
<g fill="none" fill-rule="evenodd">
<g fill="#1e1f1d">
<g transform="translate(1)">
<path d="m33.5 0c5.9989 0 10.925 4.3937 11.453 10l17.717-2.295e-4c2.3919 0 4.3301 1.9209 4.3301 4.292v43.415c0 2.3705-1.9388 4.2931-4.3301 4.2931h-58.341c-2.3905 0-4.3291-1.9227-4.3291-4.2931v-43.415c0-2.3709 1.9381-4.292 4.3291-4.292l17.718 2.295e-4c0.52809-5.6066 5.4543-10 11.453-10zm32.437 37.344c-0.7901 0.95255-1.9549 1.5787-3.2664 1.6491l-0.24758 0.0066254h-57.847c-1.4116 0-2.6738-0.6437-3.5131-1.6558l7.0791e-4 20.363c0 1.7882 1.4626 3.2388 3.2657 3.2388h58.341c1.7418 0 3.1655-1.3522 3.2616-3.055l0.0051717-0.18375 5.557e-4 -20.363zm-23.401 19.656h18.928c0.29591 0 0.53579 0.22386 0.53579 0.5 0 0.24546-0.18954 0.44961-0.43948 0.49194l-0.096309 0.0080557h-18.928c-0.29591 0-0.53579-0.22386-0.53579-0.5 0-0.24546 0.18954-0.44961 0.43948-0.49194l0.096309-0.0080557h18.928zm18.919-4c0.30096 0 0.54494 0.22386 0.54494 0.5s-0.24398 0.5-0.54494 0.5h-11.91c-0.30096 0-0.54494-0.22386-0.54494-0.5s0.24398-0.5 0.54494-0.5zm0.9681-41.929h-57.847c-1.8748 0-3.4071 1.4806-3.5072 3.344l-0.0051983 0.19409v19.78c0 1.8901 1.4693 3.4332 3.3196 3.5339l0.19273 0.0052347h57.847c1.8762 0 3.4082-1.4799 3.5082-3.3449l0.0051971-0.19426v-19.78c0-1.9538-1.573-3.5381-3.5134-3.5381zm-22.423 20.929v3h-13v-3h13zm-6.5-30.976c-5.4072 0-9.8534 3.9361-10.378 8.9761l2.9487-9.516e-5c0.48527-3.3924 3.4029-5.9999 6.9296-5.9999 3.5266 0 6.4434 2.6074 6.9286 5.9999l3.9487 1.3383e-4c-0.52442-5.0401-4.9706-8.9761-10.378-8.9761zm-0.49947 4.0438c-2.9358 0-5.3735 2.132-5.8489 4.9321l11.697 5.1718e-4c-0.47506-2.8006-2.9122-4.9327-5.848-4.9327z"/>
</g>
</g>
</g>
</svg>
