<svg width="54" height="54" xmlns="http://www.w3.org/2000/svg">
    <g fill="none" fill-rule="evenodd" stroke-linecap="round" stroke="#1e1f1d" stroke-width="2.7">
        <path
            d="M26.147 16.039c1.84 1.9 1.914 1.899 3.754.001 2.568-2.648 5.6-3.721 9.197-2.599 5.852 1.826 7.882 10.143 3.658 14.555-4.467 4.668-9.18 9.107-13.773 13.658-.687.68-1.268.647-1.94-.02-4.566-4.52-9.211-8.963-13.693-13.56-2.477-2.542-2.986-6.74-1.573-9.99 1.439-3.313 4.173-4.89 7.288-5.072 3.158.03 5.271 1.157 7.082 3.027ZM28.038 22.5v10M33.038 27.5h-10" />
    </g>
</svg>