<?xml version="1.0" encoding="UTF-8"?>
<svg version="1.1" viewBox="0 0 19 21" xmlns="http://www.w3.org/2000/svg">
<title>Group Copy 2</title>
<desc>Created with Sketch.</desc>
<g fill="none" fill-rule="evenodd">
<g transform="translate(-7 -6)">
<path d="m21.455 8.8458c-1.2519-1.1919-2.9874-1.8458-4.883-1.8458-2.895 0-4.6768 1.1743-5.6619 2.1587-1.2128 1.213-1.9098 2.8232-1.9098 4.4194 0 2.004 0.84644 3.5404 2.269 4.1135 0.096025 0.038674 0.19205 0.059769 0.28452 0.059769 0.29874 0 0.53703-0.19337 0.61883-0.50631 0.046234-0.17927 0.16004-0.61875 0.20628-0.80864 0.10314-0.37616 0.021339-0.55898-0.20628-0.82267-0.40899-0.48167-0.60104-1.0477-0.60104-1.786 0-2.1974 1.6538-4.5284 4.7194-4.5284 2.4326 0 3.9441 1.3677 3.9441 3.5651 0 1.3888-0.3023 2.672-0.85355 3.6213-0.38054 0.65746-1.0527 1.4415-2.0841 1.4415-0.44456 0-0.84644-0.17931-1.0989-0.49573-0.23828-0.29885-0.31653-0.68207-0.2205-1.0864 0.10669-0.45354 0.25607-0.92818 0.39832-1.3852 0.25962-0.83677 0.50858-1.6243 0.50858-2.2536 0-1.0758-0.66862-1.8001-1.668-1.8001-1.2661 0-2.2584 1.2727-2.2584 2.897 0 0.79458 0.21339 1.3923 0.30941 1.6208-0.16004 0.66801-1.1096 4.6409-1.2874 5.3897-0.10314 0.436-0.72908 3.8921 0.30586 4.1663 1.1665 0.30943 2.2086-3.0552 2.3117-3.4349 0.085355-0.30943 0.38766-1.4802 0.56904-2.1974 0.56192 0.53437 1.4688 0.89654 2.3508 0.89654 1.6609 0 3.1546-0.73832 4.2073-2.0814 1.0207-1.3009 1.5826-3.115 1.5826-5.1085 0.0035425-1.554-0.67219-3.0904-1.8529-4.2085" fill="#1e1f1d"/>
</g>
</g>
</svg>
