<?xml version="1.0" encoding="UTF-8"?>
<svg version="1.1" viewBox="0 0 53 64" xmlns="http://www.w3.org/2000/svg">
<title>Icons / stopwatch-new</title>
<desc>Created with Sketch.</desc>
<g fill="none" fill-rule="evenodd">
<g fill="#1e1f1d">
<path d="m41.443 15.012 2.1992-2.6493-2.7086-2.159c-0.54316-0.43295-0.63123-1.2227-0.1967-1.7638s1.2271-0.62894 1.7703-0.19598l6.2974 5.0196c0.54316 0.43295 0.63123 1.2227 0.1967 1.7638-0.43453 0.54119-1.2271 0.62894-1.7703 0.19598l-2.9002-2.3117-2.1644 2.6075c6.6 4.7918 10.889 12.553 10.889 21.313 0 14.554-11.842 26.353-26.449 26.353s-26.449-11.799-26.449-26.353c0-12.683 8.9919-23.273 20.97-25.787v-5.5857c0-3.0148 2.4529-5.4588 5.4787-5.4588s5.4787 2.444 5.4787 5.4588v5.5857c3.4069 0.71501 6.5721 2.0833 9.3576 3.9673zm-10.239-4.1367v-5.4163c0-2.5297-2.0582-4.5804-4.5971-4.5804s-4.5971 2.0507-4.5971 4.5804v5.4163c1.493-0.26071 3.0291-0.39665 4.5971-0.39665s3.1041 0.13594 4.5971 0.39665zm-4.5971 48.545c-12.521 0-22.671-10.113-22.671-22.588 0-12.475 10.15-22.588 22.671-22.588s22.671 10.113 22.671 22.588c0 12.475-10.15 22.588-22.671 22.588zm0-0.87843c12.034 0 21.789-9.7198 21.789-21.71 0-11.99-9.7552-21.71-21.789-21.71s-21.789 9.7198-21.789 21.71c0 11.99 9.7552 21.71 21.789 21.71zm0 3.7647c14.12 0 25.567-11.405 25.567-25.475 0-14.069-11.447-25.475-25.567-25.475s-25.567 11.405-25.567 25.475c0 14.069 11.447 25.475 25.567 25.475zm1.1358-23.234c-0.34127 0.17206-0.72716 0.269-1.1358 0.269-1.3912 0-2.519-1.1237-2.519-2.5098 0-1.0533 0.6512-1.955 1.5743-2.3274v-13.359c0-1.2549 1.8892-1.2549 1.8892 0v13.359c0.92314 0.37232 1.5743 1.2741 1.5743 2.3274 0 0.28875-0.048938 0.5661-0.139 0.82429l8.3179 7.2517c0.94785 0.82636-0.2962 2.243-1.2441 1.4166l-8.318-7.2518zm3.2801 2.8597 1.2441-1.4166-1.2441 1.4166zm-3.4713-12.944h-1.8892 1.8892zm-0.94461-21.02c-1.3912 0-2.519-1.1237-2.519-2.5098s1.1278-2.5098 2.519-2.5098 2.519 1.1237 2.519 2.5098-1.1278 2.5098-2.519 2.5098zm0-0.87843c0.90427 0 1.6373-0.73039 1.6373-1.6314s-0.73305-1.6314-1.6373-1.6314-1.6373 0.73039-1.6373 1.6314 0.73305 1.6314 1.6373 1.6314zm15.804 8.1337-0.67937-0.55986 0.67937 0.55986z"/>
</g>
</g>
</svg>
