<svg width="31" height="30" xmlns="http://www.w3.org/2000/svg"><g stroke="#1e1f1d" stroke-width="1.62" fill="none" fill-rule="evenodd"><path d="m19.6823 7.9997 1.1602 1.0693c.719.6627.7775 1.7782.1316 2.5124l-7.2472 8.2388c-.6565.7465-1.7939.8193-2.5403.1627a1.8001 1.8001 0 0 1-.031-.028l-1.1603-1.0693c-.719-.6627-.7775-1.7782-.1316-2.5124l7.2471-8.2388c.6566-.7464 1.794-.8193 2.5404-.1627a1.8 1.8 0 0 1 .031.028Z"/><path stroke-linecap="round" d="m10.482 19.5924-4.939 5.6877"/><path stroke-linecap="square" stroke-linejoin="round" d="m20.3603 8.2172 1.4413-1.4988"/><path stroke-linecap="round" stroke-linejoin="round" d="m19.689 3.9955 5.0468 4.6516"/></g></svg>