<?xml version="1.0" encoding="UTF-8"?>
<svg version="1.1" viewBox="0 0 61 64" xmlns="http://www.w3.org/2000/svg">
<title>Icons / Calander New 1</title>
<desc>Created with Sketch.</desc>
<g fill="none" fill-rule="evenodd">
<g fill="#fff">
<path d="m58 19v-9c0-2.4853-2.0147-4.5-4.5-4.5h-3v2.542c1.3006 0.71842 2.1375 2.0942 2.1375 3.623 0 2.2851-1.8524 4.1375-4.1375 4.1375s-4.1375-1.8524-4.1375-4.1375c0-1.5304 0.83874-2.9057 2.1375-3.623v-2.5419h-5v2.542c1.3006 0.71842 2.1375 2.0942 2.1375 3.623 0 2.2851-1.8524 4.1375-4.1375 4.1375s-4.1375-1.8524-4.1375-4.1375c0-1.5304 0.83874-2.9057 2.1375-3.623v-2.5419h-5v2.542c1.3006 0.71842 2.1375 2.0942 2.1375 3.623 0 2.2851-1.8524 4.1375-4.1375 4.1375s-4.1375-1.8524-4.1375-4.1375c0-1.5304 0.83874-2.9057 2.1375-3.623v-2.5419h-5v2.542c1.3006 0.71842 2.1375 2.0942 2.1375 3.623 0 2.2851-1.8524 4.1375-4.1375 4.1375s-4.1375-1.8524-4.1375-4.1375c0-1.5304 0.83874-2.9057 2.1375-3.623v-2.5419h-5v2.542c1.3006 0.71842 2.1375 2.0942 2.1375 3.623 0 2.2851-1.8524 4.1375-4.1375 4.1375s-4.1375-1.8524-4.1375-4.1375c0-1.5304 0.83874-2.9057 2.1375-3.623v-2.5419h-3c-2.4853 0-4.5 2.0147-4.5 4.5v9h55zm0 1h-55v38c0 2.4853 2.0147 4.5 4.5 4.5h46c2.4853 0 4.5-2.0147 4.5-4.5v-38zm-7.5-15.5h3c3.0376 0 5.5 2.4624 5.5 5.5v48c0 3.0376-2.4624 5.5-5.5 5.5h-46c-3.0376 0-5.5-2.4624-5.5-5.5v-48c0-3.0376 2.4624-5.5 5.5-5.5h3v-2.5c0-1.1046 0.89543-2 2-2s2 0.89543 2 2v2.5h5v-2.5c0-1.1046 0.89543-2 2-2s2 0.89543 2 2v2.5h5v-2.5c0-1.1046 0.89543-2 2-2s2 0.89543 2 2v2.5h5v-2.5c0-1.1046 0.89543-2 2-2s2 0.89543 2 2v2.5h5v-2.5c0-1.1046 0.89543-2 2-2s2 0.89543 2 2v2.5zm-4 4.7467c-0.70463 0.58325-1.1375 1.4607-1.1375 2.4183 0 1.7328 1.4047 3.1375 3.1375 3.1375s3.1375-1.4047 3.1375-3.1375c0-0.9568-0.43213-1.8344-1.1375-2.4183v0.75333c0 1.1046-0.89543 2-2 2s-2-0.89543-2-2v-0.75333zm-9 0c-0.70463 0.58325-1.1375 1.4607-1.1375 2.4183 0 1.7328 1.4047 3.1375 3.1375 3.1375s3.1375-1.4047 3.1375-3.1375c0-0.9568-0.43213-1.8344-1.1375-2.4183v0.75333c0 1.1046-0.89543 2-2 2s-2-0.89543-2-2v-0.75333zm-9 0c-0.70463 0.58325-1.1375 1.4607-1.1375 2.4183 0 1.7328 1.4047 3.1375 3.1375 3.1375s3.1375-1.4047 3.1375-3.1375c0-0.9568-0.43213-1.8344-1.1375-2.4183v0.75333c0 1.1046-0.89543 2-2 2s-2-0.89543-2-2v-0.75333zm-9 0c-0.70463 0.58325-1.1375 1.4607-1.1375 2.4183 0 1.7328 1.4047 3.1375 3.1375 3.1375s3.1375-1.4047 3.1375-3.1375c0-0.9568-0.43213-1.8344-1.1375-2.4183v0.75333c0 1.1046-0.89543 2-2 2s-2-0.89543-2-2v-0.75333zm-9 0c-0.70463 0.58325-1.1375 1.4607-1.1375 2.4183 0 1.7328 1.4047 3.1375 3.1375 3.1375s3.1375-1.4047 3.1375-3.1375c0-0.9568-0.43213-1.8344-1.1375-2.4183v0.75333c0 1.1046-0.89543 2-2 2s-2-0.89543-2-2v-0.75333zm2-8.2467c-0.55228 0-1 0.44772-1 1v8c0 0.55228 0.44772 1 1 1s1-0.44772 1-1v-8c0-0.55228-0.44772-1-1-1zm9 0c-0.55228 0-1 0.44772-1 1v8c0 0.55228 0.44772 1 1 1s1-0.44772 1-1v-8c0-0.55228-0.44772-1-1-1zm9 0c-0.55228 0-1 0.44772-1 1v8c0 0.55228 0.44772 1 1 1s1-0.44772 1-1v-8c0-0.55228-0.44772-1-1-1zm9 0c-0.55228 0-1 0.44772-1 1v8c0 0.55228 0.44772 1 1 1s1-0.44772 1-1v-8c0-0.55228-0.44772-1-1-1zm9 0c-0.55228 0-1 0.44772-1 1v8c0 0.55228 0.44772 1 1 1s1-0.44772 1-1v-8c0-0.55228-0.44772-1-1-1zm-38 28h4v4h-4v-4zm12 0h4v4h-4v-4zm12 0h4v4h-4v-4zm12 0h4v4h-4v-4zm-36 10h4v4h-4v-4zm12 0h4v4h-4v-4zm12 0h4v4h-4v-4zm12 0h4v4h-4v-4zm-36 10h4v4h-4v-4zm12 0h4v4h-4v-4zm12 0h4v4h-4v-4zm12 0h4v4h-4v-4z"/>
</g>
</g>
</svg>
