<?xml version="1.0" encoding="UTF-8"?>
<svg version="1.1" viewBox="0 0 54 64" xmlns="http://www.w3.org/2000/svg">
<title>Icons / Syringe New</title>
<desc>Created with Sketch.</desc>
<g fill="none" fill-rule="evenodd">
<g fill="#fff">
<g transform="translate(2)">
<path d="m41.053 13.209 3.8267-5.0299-3.0708-2.3365-3.8268 5.03 3.0709 2.3365zm-26.498 33.778-2.0661-1.572c-3.7761-2.8735-4.5081-8.2634-1.6341-12.039l19.432-25.538 15.741 11.978-19.433 25.537c-2.8732 3.7758-8.2629 4.5073-12.04 1.6342zm11.244-2.2397 18.827-24.741-14.149-10.766-18.826 24.742c-2.5394 3.3358-1.8927 8.0982 1.4439 10.637l2.066 1.572c3.3372 2.5388 8.0996 1.8924 10.638-1.4439z"/>
<path id="Combined-Shape" d="m30.081 4.2315 19.478 14.821-2.2674 2.9809-19.479-14.822 2.2686-2.9808zm0.19016 1.4013-1.0574 1.3892 17.887 13.61 1.0566-1.3891-17.886-13.611z"/>
<path id="a" d="m38.663 1.5823e-4 12.687 9.6525-2.2687 2.9808-12.686-9.6536 2.2676-2.9797zm0.19026 1.4013-1.0564 1.3883 11.094 8.4424 1.0573-1.3892-11.095-8.4415z"/>
<path d="m12.348 44.56 3.0698 2.3365-2.6575 3.4934c-0.53955 0.71148-1.478 0.9421-2.2668 0.61853l-9.5945 12.609c-0.16722 0.21975-0.48093 0.26234-0.70068 0.095121-0.19534-0.14864-0.25069-0.41302-0.14314-0.62428l0.048014-0.076401 9.5952-12.608c-0.49005-0.63162-0.54497-1.5197-0.10419-2.2138l0.094784-0.13611 2.659-3.494zm3.7915-9.3441c0.16723-0.21974 0.48094-0.26231 0.70069-0.095079l6.478 4.93c0.21974 0.16723 0.26231 0.48094 0.095079 0.70069s-0.48094 0.26231-0.70069 0.095079l-6.478-4.93c-0.21974-0.16723-0.26231-0.48094-0.095079-0.70069zm6.7171-8.1499 0.076398 0.048019 6.478 4.93c0.21974 0.16723 0.26231 0.48094 0.095079 0.70069-0.14865 0.19533-0.41304 0.25067-0.62429 0.1431l-0.076398-0.048019-6.478-4.93c-0.21974-0.16723-0.26231-0.48094-0.095079-0.70069 0.14865-0.19533 0.41304-0.25067 0.62429-0.1431zm6.0927-8.0069 0.076398 0.048019 6.478 4.93c0.21974 0.16723 0.26231 0.48094 0.095079 0.70069-0.14865 0.19533-0.41304 0.25067-0.62429 0.1431l-0.076398-0.048019-6.478-4.93c-0.21974-0.16723-0.26231-0.48094-0.095079-0.70069 0.14865-0.19533 0.41304-0.25067 0.62429-0.1431z"/>
</g>
</g>
</g>
</svg>
