<?xml version="1.0" encoding="UTF-8"?>
<svg version="1.1" viewBox="0 0 32 32" preserveAspectRatio="xMinYMid" xmlns="http://www.w3.org/2000/svg">
<title>Icons / Location</title>
<desc>Created with Sketch.</desc>
<g fill="none" fill-rule="evenodd">
<path d="m17.25 16c0 0.69004-0.55913 1.2495-1.249 1.25-0.69131 4e-7 -1.251-0.55964-1.251-1.25 1.084e-4 -0.69046 0.55971-1.25 1.25-1.25 0.6904 1.084e-4 1.2499 0.5596 1.25 1.2498zm-10.782-10.593 1.5771 1.5771c0.29289 0.29289 0.29289 0.76777 0 1.0607s-0.76777 0.29289-1.0607 0l-1.5771-1.5771c-2.1175 2.3516-3.4631 5.412-3.6379 8.7821h2.2306c0.41421 0 0.75 0.33579 0.75 0.75s-0.33579 0.75-0.75 0.75h-2.2306c0.17475 3.3701 1.5204 6.4305 3.6379 8.7821l1.5771-1.5771c0.29289-0.29289 0.76777-0.29289 1.0607 0 0.29289 0.29289 0.29289 0.76777 0 1.0607l-1.5771 1.5771c2.3516 2.1175 5.412 3.4631 8.7821 3.6379v-2.2306c0-0.41421 0.33579-0.75 0.75-0.75s0.75 0.33579 0.75 0.75v2.2306c3.3701-0.17475 6.4305-1.5204 8.7821-3.6379l-1.5771-1.5771c-0.29289-0.29289-0.29289-0.76777 0-1.0607 0.29289-0.29289 0.76777-0.29289 1.0607 0l1.5771 1.5771c2.1175-2.3516 3.4631-5.412 3.6379-8.7821h-2.2306c-0.41421 0-0.75-0.33579-0.75-0.75s0.33579-0.75 0.75-0.75h2.2306c-0.17475-3.3701-1.5204-6.4305-3.6379-8.7821l-1.5771 1.5771c-0.29289 0.29289-0.76777 0.29289-1.0607 0-0.29289-0.29289-0.29289-0.76777 0-1.0607l1.5771-1.5771c-2.3516-2.1175-5.412-3.4631-8.7821-3.6379v2.2306c0 0.41421-0.33579 0.75-0.75 0.75s-0.75-0.33579-0.75-0.75v-2.2306c-3.3701 0.17475-6.4305 1.5204-8.7821 3.6379zm-1.5963-0.5528c2.8495-2.8451 6.7835-4.6045 11.128-4.6045s8.2788 1.7593 11.128 4.6045c0.0029051 0.0028142 0.0057931 0.0056566 0.0086636 0.0085271 0.0028704 0.0028705 0.0057128 0.0057584 0.008527 0.0086635 2.8451 2.8495 4.6045 6.7835 4.6045 11.128s-1.7593 8.2788-4.6045 11.128c-0.0028142 0.0029051-0.0056566 0.0057931-0.008527 0.0086636-0.0028705 0.0028704-0.0057585 0.0057128-0.0086636 0.008527-2.8495 2.8451-6.7835 4.6045-11.128 4.6045s-8.2788-1.7593-11.128-4.6045c-0.0029051-0.0028142-0.0057931-0.0056566-0.0086635-0.008527-0.0028705-0.0028705-0.0057128-0.0057585-0.0085271-0.0086636-2.8451-2.8495-4.6045-6.7835-4.6045-11.128s1.7593-8.2788 4.6045-11.128c0.0028142-0.0029051 0.0056566-0.0057931 0.0085271-0.0086635 0.0028705-0.0028705 0.0057584-0.0057128 0.0086635-0.0085271zm17.856 4.4178c0.46903 0.46905 0.63256 1.1629 0.42254 1.7915l-2.9027 8.7093c-0.074649 0.22398-0.25041 0.39974-0.47439 0.47439l-8.7088 2.9025c-0.6291 0.21017-1.3229 0.046616-1.7919-0.42239-0.469-0.469-0.63255-1.1628-0.42256-1.7914l2.9027-8.7093c0.074649-0.22398 0.25041-0.39974 0.47439-0.47439l8.7088-2.9025c0.6291-0.2102 1.323-0.046673 1.792 0.42233zm-1.3172 1.0005-8.3535 2.7841-2.7843 8.354c-0.030024 0.089871-0.0066594 0.18899 0.060341 0.25599 0.067001 0.067001 0.16612 0.090365 0.2565 0.060172l8.3535-2.7841 2.7843-8.3541c0.030027-0.089866 0.0066703-0.18898-0.060322-0.25599-0.067004-0.066992-0.16612-0.090349-0.25653-0.06014z" fill="#9C7731"/>
</g>
</svg>
