<?xml version="1.0" encoding="UTF-8"?>
<svg version="1.1" viewBox="0 0 32 32" preserveAspectRatio="xMinYMid" xmlns="http://www.w3.org/2000/svg">
<title>Icons / Search</title>
<desc>Created with Sketch.</desc>
<g fill="none" fill-rule="evenodd">
<path d="m24.158 10.599c-2.2331-5.2546-8.3031-7.7039-13.558-5.4708-5.2546 2.2331-7.7039 8.3031-5.4708 13.558 2.2331 5.2546 8.3031 7.7039 13.558 5.4708 1.2369-0.52566 2.3396-1.2727 3.2684-2.2021 2.9555-2.9576 3.8657-7.4417 2.2024-11.356zm7.4551 19.953c0.70706 0.70716-0.35368 1.7677-1.0607 1.0606l-8.083-8.0842c-0.94149 0.82892-2.0159 1.5072-3.1955 2.0085-6.017 2.5572-12.968-0.24759-15.525-6.2646-2.5572-6.017 0.24759-12.968 6.2646-15.525 6.017-2.5572 12.968 0.24759 15.525 6.2646 1.8047 4.2464 0.96361 9.0792-2.0087 12.456l8.0833 8.0844zm-8.5965-7.5374-1.0609 1.434e-4 0.51358 0.51365c0.1878-0.16534 0.3703-0.33668 0.5473-0.51379zm-1.433e-4 -1.0604 1.433e-4 1.0604c0.17753-0.17765 0.34862-0.36012 0.51318-0.54705l-0.51332-0.51339z" fill="#9C7731"/>
</g>
</svg>
