<?xml version="1.0" encoding="UTF-8"?>
<svg version="1.1" viewBox="0 0 32 32" xmlns="http://www.w3.org/2000/svg">
<title>Icons / Arrow Right</title>
<desc>Created with Sketch.</desc>
<g fill="none" fill-rule="evenodd">
<path d="m17 31c-0.26667 0-0.51867-0.104-0.70667-0.29333-0.38933-0.38933-0.38933-1.024 0-1.4147l12.293-12.293h-27.587c-0.552 0.0013333-1-0.44667-1-0.99867s0.448-1 1-1h27.585l-12.293-12.293c-0.188-0.188-0.292-0.44-0.292-0.70667s0.104-0.51867 0.29333-0.70667c0.188-0.18933 0.44-0.29333 0.70667-0.29333s0.51867 0.104 0.70667 0.29333l14 14c0.093333 0.093333 0.16667 0.20267 0.21733 0.32667 4e-3 0.010667 0.0093333 0.022667 0.013333 0.034667 0.041333 0.108 0.062667 0.22667 0.062667 0.34533 0 0.116-0.021333 0.232-0.062667 0.344-0.0026666 8e-3 -0.0053333 0.014667-8e-3 0.021333-0.056 0.13867-0.13067 0.24933-0.224 0.34267l-13.999 13.999c-0.188 0.18933-0.44 0.29333-0.70667 0.29333z" fill="#1e1f1d"/>
</g>
</svg>
