<?xml version="1.0" encoding="UTF-8"?>
<svg version="1.1" viewBox="0 0 32 32" xmlns="http://www.w3.org/2000/svg">
<title>Icons / Close</title>
<desc>Created with Sketch.</desc>
<g fill="none" fill-rule="evenodd">
<path d="m31 32.001c-0.26667 0-0.51867-0.104-0.70667-0.29333l-14.293-14.292-14.293 14.292c-0.18933 0.18933-0.44 0.29333-0.70667 0.29333-0.26667 0-0.51867-0.104-0.70667-0.29333-0.38933-0.38933-0.38933-1.024 0-1.4146l14.293-14.293-14.293-14.292c-0.18933-0.188-0.29333-0.43999-0.29333-0.70665 0-0.26666 0.104-0.51866 0.29333-0.70665 0.188-0.18933 0.44-0.29333 0.70667-0.29333 0.26667 0 0.51867 0.104 0.70667 0.29333l14.293 14.292 14.293-14.293c0.18933-0.18933 0.44-0.29333 0.70667-0.29333s0.51867 0.104 0.70667 0.29333c0.18933 0.18933 0.29333 0.44132 0.29333 0.70799 0 0.26666-0.104 0.51866-0.29333 0.70665l-14.293 14.293 14.293 14.293c0.38933 0.38933 0.38933 1.024 0 1.4146-0.188 0.188-0.44 0.29199-0.70667 0.29199z" fill="#816910"/>
</g>
</svg>
