<?xml version="1.0" encoding="UTF-8"?>
<svg version="1.1" viewBox="0 0 32 32" xmlns="http://www.w3.org/2000/svg">
<title>Icons / Name</title>
<desc>Created with Sketch.</desc>
<g fill="none" fill-rule="evenodd">
<path d="m16 10c-2.7573 0-5-2.2427-5-5s2.2427-5 5-5 5 2.2427 5 5-2.2427 5-5 5zm0-8c-1.6547 0-3 1.3453-3 3s1.3453 3 3 3 3-1.3453 3-3-1.3453-3-3-3zm-3 30c-0.516 0-0.944-0.38667-0.99467-0.9l-0.91067-9.1h-2.0947c-0.552 0-1-0.448-1-1v-3c0-4.4107 3.5893-8 8-8s8 3.5893 8 8v3c0 0.552-0.448 1-1 1h-2.0947l-0.91067 9.1c-0.050667 0.512-0.47867 0.9-0.99467 0.9h-6zm5.0947-2 0.91067-9.1c0.050667-0.512 0.47867-0.9 0.99467-0.9h2v-2c0-3.308-2.692-6-6-6s-6 2.692-6 6v2h2c0.516 0 0.944 0.38667 0.99467 0.9l0.90933 9.1h4.1907z" fill="#1e1f1d"/>
</g>
</svg>
