<svg width="63" height="63" xmlns="http://www.w3.org/2000/svg"><g fill="none" fill-rule="evenodd" stroke="#000" stroke-width="3.1122"><path d="M31.8 15.902c4.2615 0 8.1183 1.7607 10.9106 4.6034 2.8023 2.8529 4.5332 6.7947 4.5332 11.1474s-1.731 8.2945-4.5332 11.1474c-2.7923 2.8427-6.6491 4.6034-10.9107 4.6034-4.2616 0-8.1184-1.7607-10.9107-4.6034-2.8022-2.8529-4.5332-6.7947-4.5332-11.1474s1.731-8.2945 4.5332-11.1474c2.7923-2.8427 6.6491-4.6034 10.9107-4.6034Z"/><path stroke-linecap="round" d="M31.7999 14.8097V9.1825M31.7999 54.1996v-5.6271M48.95 32.3562h5.5M9.45 32.3562h5.5M43.9269 19.9489l3.889-3.979M16.7032 47.8018l3.8891-3.979M19.673 19.9489l-3.8891-3.979M46.8966 47.8018l-3.8891-3.979"/></g></svg>