<?xml version="1.0" encoding="UTF-8"?>
<svg version="1.1" viewBox="0 0 32 32" xmlns="http://www.w3.org/2000/svg">
<title>Icons / Time</title>
<desc>Created with Sketch.</desc>
<g fill="none" fill-rule="evenodd">
<path d="m16 31c-8.2707 0-15-6.7293-15-15 0-8.2707 6.7293-15 15-15 8.2707 0 15 6.7293 15 15 0 8.2707-6.7293 15-15 15zm0-28c-7.168 0-13 5.832-13 13s5.832 13 13 13 13-5.832 13-13-5.832-13-13-13zm6.0289 20c-0.25861 0-0.50299-0.10203-0.68531-0.28778l-6.0604-6.1324c-0.090512-0.091568-0.16163-0.19883-0.21076-0.32049-0.0038791-0.010465-0.0077582-0.022238-0.011637-0.032703-0.041377-0.1125-0.060773-0.225-0.060773-0.34011v-4.9054c0-0.54156 0.43446-0.98108 0.96978-0.98108 0.53532 0 0.96978 0.43953 0.96978 0.98108v4.4986l5.776 5.8446c0.18361 0.18575 0.28447 0.43168 0.28447 0.6933 0 0.26162-0.10086 0.50885-0.28447 0.6933-0.18361 0.18444-0.42799 0.28909-0.6866 0.28909z" fill="#1e1f1d"/>
</g>
</svg>
