<?xml version="1.0" encoding="UTF-8"?>
<svg version="1.1" viewBox="0 0 32 32" xmlns="http://www.w3.org/2000/svg">
<title>Icons / Trash</title>
<desc>Created with Sketch.</desc>
<g fill="none" fill-rule="evenodd">
<path d="m8.8413 31c-1.548 0-2.8613-1.208-2.9893-2.752l-1.772-21.248h-2.08c-0.552 0-1-0.448-1-1s0.448-1 1-1h8v-1c0-1.6547 1.3453-3 3-3h6c1.6547 0 3 1.3453 3 3v1h8c0.552 0 1 0.448 1 1s-0.448 1-1 1h-2.08l-1.7707 21.249c-0.128 1.5427-1.4413 2.7507-2.9893 2.7507h-14.319zm-0.99733-2.9173c0.042667 0.51467 0.48 0.91733 0.99733 0.91733h14.319c0.516 0 0.95467-0.40267 0.996-0.91733l1.7573-21.083h-19.827l1.7573 21.083zm12.156-23.083v-1c0-0.552-0.448-1-1-1h-6c-0.552 0-1 0.448-1 1v1h8zm-7 19c-0.552 0-1-0.448-1-1v-10c0-0.552 0.448-1 1-1s1 0.448 1 1v10c0 0.552-0.448 1-1 1zm6 0c-0.552 0-1-0.448-1-1v-10c0-0.552 0.448-1 1-1s1 0.448 1 1v10c0 0.552-0.448 1-1 1z" fill="#1e1f1d"/>
</g>
</svg>
