<svg width="63" height="63" xmlns="http://www.w3.org/2000/svg"><g fill="none" fill-rule="evenodd" stroke="#000"><path d="M39.0429 14.1896a1.6448 1.6448 0 0 1 1.1904.4216l6.329 5.6987c.3386.3049.5216.7181.5437 1.1398a1.6448 1.6448 0 0 1-.4215 1.1904L30.3892 40.7378a1.6448 1.6448 0 0 1-1.1398.5437 1.6448 1.6448 0 0 1-1.1904-.4215l-6.329-5.6987a1.6448 1.6448 0 0 1-.5438-1.1399 1.6448 1.6448 0 0 1 .4216-1.1904L37.903 14.7333a1.6448 1.6448 0 0 1 1.1399-.5437Z" stroke-width="2.7" fill="none"/><path stroke-width="1.35" stroke-linecap="round" stroke-linejoin="round" d="M23.5 39.5 9.5482 54.4953"/><path stroke-width="2.7" stroke-linecap="square" stroke-linejoin="round" d="m43.3839 17.1781 3.0809-3.1298"/><path stroke-width="2.7" stroke-linecap="round" stroke-linejoin="round" d="m41.9491 8.3623 10.7879 9.7134"/><path d="m22.5542 37.8343 2.897 2.6085-.697.7633-2.8971-2.6085.6971-.7633Z" stroke-width="2.7" fill="none"/></g></svg>