<?xml version="1.0" encoding="UTF-8"?>
<svg version="1.1" viewBox="0 0 32 32" xmlns="http://www.w3.org/2000/svg">
<title>Icons / Chevron Right</title>
<desc>Created with Sketch.</desc>
<g fill="none" fill-rule="evenodd">
<path transform="translate(16 16) rotate(-90) translate(-16 -16)" d="m16 24c-0.53333 0-1.0347-0.20066-1.412-0.56339l-14.295-13.789c-0.18933-0.18265-0.29333-0.42447-0.29333-0.68301 0-0.25726 0.104-0.50036 0.29333-0.68173 0.18933-0.18265 0.44-0.28298 0.70667-0.28298 0.26667 0 0.51867 0.10033 0.70667 0.28298l14.293 13.788 14.293-13.788c0.18933-0.18265 0.44-0.28298 0.70667-0.28298s0.51867 0.10033 0.70667 0.28298c0.18933 0.18265 0.29333 0.42447 0.29333 0.68173 0 0.25726-0.104 0.50036-0.29333 0.68173l-14.293 13.789c-0.376 0.36402-0.87867 0.56468-1.4133 0.56468z" fill="#9C7731"/>
</g>
</svg>
