<?xml version="1.0" encoding="UTF-8"?>
<svg version="1.1" viewBox="0 0 45 64" xmlns="http://www.w3.org/2000/svg">
<title>Icons / New Complication</title>
<desc>Created with Sketch.</desc>
<g fill="none" fill-rule="evenodd">
<g transform="translate(-3 1)" fill="#fff">
<path d="m25.914-0.98901c2.5881 0.16649 4.6108 2.3582 4.7212 4.9802l0.004746 0.22576v2.539h7.342c0.93336 0 1.7364 0.55992 2.0915 1.3621l4.8142 2.4695e-4c1.2103 0 2.2012 0.94013 2.2817 2.1295l0.0052768 0.15649v50.443c0 1.2096-0.9404 2.1994-2.1304 2.2797l-0.15658 0.0052702h-38.602c-1.2097 0-2.2003-0.93949-2.2807-2.1285l-0.0052752-0.15645v-50.443c0-1.2096 0.94031-2.2003 2.1295-2.2807l0.15647-0.0052758 4.8147-3.7609e-4c0.3327-0.75204 1.0591-1.291 1.9181-1.3554l0.17349-0.0064821h7.325v-2.695c0-2.9207 2.4659-5.2409 5.3971-5.05zm-15.008 10.107-4.62 2.6343e-4c-0.66549 0-1.2135 0.50638-1.2794 1.1546l-0.0066436 0.13142v50.443c0 0.66523 0.50613 1.2125 1.1545 1.2784l0.13147 0.0066354h38.602c0.66658 0 1.2145-0.50564 1.2804-1.1536l0.0066421-0.13138v-50.443c0-0.6656-0.50647-1.2135-1.1554-1.2794l-0.13158-0.0066424-4.62-2.6343e-4 3e-4 4.344-0.0033 0.089037 1.4545 8.634e-4c1.0503 0 1.9105 0.81281 1.9865 1.8442l0.0054626 0.14877v42.161c0 1.1008-0.89156 1.992-1.992 1.992h-32.265c-1.1005 0-1.993-0.89124-1.993-1.992v-42.161c0-1.1008 0.89256-1.993 1.993-1.993l1.4545-8.634e-4 -0.0027-0.089037-3e-4 -4.344zm27.233 6.6247-0.15647 0.0052757h-24.79c-0.868 0-1.6228-0.48356-2.0099-1.1959l-1.7279-2.108e-4c-0.54825 0-0.993 0.44454-0.993 0.993v42.161c0 0.54817 0.44445 0.992 0.993 0.992h32.265c0.54826 0 0.992-0.44354 0.992-0.992v-42.161c0-0.54875-0.44404-0.993-0.992-0.993l-1.7275 7.69e-5c-0.3638 0.66914-1.052 1.1365-1.8533 1.1907zm-20.945 32.122v3.991h-3.991v-3.991h3.991zm20.276 1.4953c0.27614 0 0.5 0.22386 0.5 0.5 0 0.24546-0.17688 0.44961-0.41012 0.49194l-0.089876 0.0080556h-16.586c-0.27614 0-0.5-0.22386-0.5-0.5 0-0.24546 0.17688-0.44961 0.41012-0.49194l0.089876-0.0080557h16.586zm-20.276-12.495v3.991h-3.991v-3.991h3.991zm20.276 0.9953c0.27614 0 0.5 0.22386 0.5 0.5 0 0.24546-0.17688 0.44961-0.41012 0.49194l-0.089876 0.0080556h-16.586c-0.27614 0-0.5-0.22386-0.5-0.5 0-0.24546 0.17688-0.44961 0.41012-0.49194l0.089876-0.0080557h16.586zm-20.276-12.995v3.991h-3.991v-3.991h3.991zm20.276 1.4953c0.27614 0 0.5 0.22386 0.5 0.5 0 0.24546-0.17688 0.44961-0.41012 0.49194l-0.089876 0.0080556h-16.586c-0.27614 0-0.5-0.22386-0.5-0.5 0-0.24546 0.17688-0.44961 0.41012-0.49194l0.089876-0.0080557h16.586zm-15.948-22.505-0.0050937 0.20552v3.695h-8.325c-0.66606 0-1.2135 0.50603-1.2794 1.1545l-0.0066369 0.13149v4.42c0 0.66586 0.50584 1.2135 1.1545 1.2794l0.13152 0.0066394h24.79c0.66549 0 1.2135-0.50638 1.2794-1.1546l0.0066437-0.13142v-4.42c0-0.66549-0.50638-1.2135-1.1546-1.2794l-0.13142-0.0066436h-8.342v-3.539c0-2.2041-1.6655-4.0714-3.7905-4.2081-2.2848-0.14882-4.2158 1.6005-4.3274 3.8465zm4.0643-2.6414c1.5401 0 2.787 1.2469 2.787 2.787 0 1.5395-1.2472 2.787-2.787 2.787-1.5391 0-2.787-1.2479-2.787-2.787 0-1.5398 1.2475-2.787 2.787-2.787zm0 1c-0.98724 0-1.787 0.79952-1.787 1.787 0 0.98686 0.80014 1.787 1.787 1.787 0.98748 0 1.787-0.79976 1.787-1.787 0-0.98786-0.79914-1.787-1.787-1.787z"/>
</g>
</g>
</svg>
