<?xml version="1.0" encoding="UTF-8"?>
<svg version="1.1" viewBox="0 0 70 63" xmlns="http://www.w3.org/2000/svg">
<title>Icons / Doctor New</title>
<desc>Created with Sketch.</desc>
<g fill="none" fill-rule="evenodd">
<g fill="#fff">
<g transform="translate(1.21)">
<path d="m33.47 0c3.866 0 7 3.134 7 7 0 2.6321-1.4527 4.9249-3.6001 6.1204l-8.267e-4 13.279 0.60097 1e-3c4.1974 0 7.6 3.4026 7.6 7.6s-3.4026 7.6-7.6 7.6l-0.60097-1e-3v6.8l1.601 1e-3c2.5405 0 4.6 2.0595 4.6 4.6s-2.0595 4.6-4.6 4.6c-0.33137 0-0.6-0.26863-0.6-0.6s0.26863-0.6 0.6-0.6c1.8778 0 3.4-1.5222 3.4-3.4s-1.5222-3.4-3.4-3.4h-1.601l9.709e-4 5.9004c0 0.080235-1.0154 2.3098-3.0463 6.6885-0.17899 0.38653-0.72844 0.38653-0.90743 0l-2.9603-6.3927c-0.0043463-2.1456-0.0085278-4.2112-0.012544-6.1968l-3.4735 5.021e-4c-2.5405 0-4.6-2.0595-4.6-4.6s2.0595-4.6 4.6-4.6l3.4549-0.0010355c-0.0099297-4.9215-0.018512-9.1881-0.025746-12.8l-0.42912 8.278e-4c-3.5346 0-6.4 2.8654-6.4 6.4 0 1.2813 0.37666 2.5051 1.0722 3.5474 0.18393 0.27564 0.10959 0.64819-0.16605 0.83212-0.27564 0.18393-0.64819 0.10959-0.83212-0.16605-0.82615-1.2381-1.274-2.6932-1.274-4.2135 0-4.1974 3.4026-7.6 7.6-7.6l0.42672-0.0014344c-0.01443-7.2126-0.023016-11.585-0.025757-13.118l-6.02e-4 -0.27577c-2.0372-1.2239-3.4004-3.4551-3.4004-6.0048 0-3.866 3.134-7 7-7zm2.399 49.6h-5l9.709e-4 5.7902 2.5 5.3987 2.5-5.3987-9.709e-4 -5.7902zm0-8.001h-5v6.8h5v-6.8zm-5.9417-6.785e-4 -3.4573 0.0016785c-1.8778 0-3.4 1.5222-3.4 3.4s1.5222 3.4 3.4 3.4l3.471-0.0012362c-0.0048261-2.3863-0.0094064-4.6531-0.013741-6.8004zm5.9417-13.999h-5v12.8h5v-12.8zm1.601 1e-3 -0.60097-1e-3v12.8l0.60097 1e-3c3.5346 0 6.4-2.8654 6.4-6.4s-2.8654-6.4-6.4-6.4zm27.691-19.252c0.71872 0.30227 1.0787 1.099 0.85086 1.8284l-0.049674 0.13582-1.0032 2.3854-0.13863 0.30912c-0.38818 0.81384-0.92304 1.5425-1.5724 2.1523l-0.2488 0.22304-0.019206-0.063024c0.53004 1.6415 0.10005 3.4436-1.1176 4.6692-1.6268 1.6374-2.8634 2.8226-3.7138 3.5589-0.37585 0.32541-0.6797 0.56636-0.91824 0.72615l-0.11386 0.073146-0.021976 0.014089c0.079186 0.50861-0.10763 1.039-0.52079 1.3832l-0.11826 0.089097-2.3511 1.5983-0.27506 0.17848c-1.2066 0.74665-2.5993 1.1439-4.0225 1.1439-1.3951 0-2.7739-0.28663-4.0513-0.84058l-0.34582-0.15769-6.3356-3.033-0.070402-0.04105c-0.10602-0.074019-0.17917-0.18638-0.2042-0.31283l-0.0095024-0.097105v-6.6019l0.0080557-0.089876c0.037044-0.20409 0.19798-0.36502 0.40207-0.40207l0.089876-0.0080557h0.74727l0.24234-0.0068629c0.96582-0.054759 1.8849-0.43547 2.6066-1.0797l0.17621-0.16651 0.73947-0.73947 0.11648-0.12862c0.25566-0.31203 0.39711-0.70437 0.39711-1.1113 0-0.66388 0.23975-1.303 0.67131-1.8017l0.13517-0.14528 0.73645-0.73645 0.18929-0.18013c0.90192-0.81666 2.0592-1.296 3.2744-1.3563l0.26122-0.0064742h5.4366l0.62659-0.0067666c2.0668-0.044644 4.1228-0.31005 6.1331-0.79164l0.66834-0.16853 1.7476-0.46282 0.16156-0.033405c0.27111-0.040657 0.54933-0.0063705 0.80396 0.10072zm-63.452 0c0.30556-0.12851 0.64509-0.15218 0.96553-0.067315l1.7476 0.46282c2.4238 0.64192 4.9206 0.96694 7.428 0.96694h5.4366c1.3971 0 2.737 0.55501 3.725 1.5429l0.73645 0.73645c0.51638 0.51638 0.80648 1.2167 0.80648 1.947 0 0.46506 0.18474 0.91107 0.51359 1.2399l0.73947 0.73947c0.80232 0.80232 1.8905 1.2531 3.0252 1.2531h0.74727c0.27614 0 0.5 0.22386 0.5 0.5v6.6019c0 0.19248-0.11049 0.36787-0.2841 0.45098l-6.3356 3.033c-1.3727 0.65715-2.8752 0.99827-4.3971 0.99827-1.5327 0-3.03-0.46074-4.2975-1.3224l-2.3511-1.5983c-0.49546-0.33681-0.72562-0.91796-0.63894-1.473l-0.022084-0.013396c-0.25313-0.15496-0.59361-0.41965-1.0321-0.7993-0.85041-0.73628-2.087-1.9215-3.7138-3.5589-1.2022-1.21-1.6366-2.982-1.1373-4.6066-0.84657-0.7244-1.5206-1.641-1.9593-2.684l-1.0032-2.3854c-0.32116-0.76364 0.037545-1.643 0.80119-1.9642zm62.824 0.88491-0.081026 0.014452-1.7476 0.46282-0.62838 0.15918c-2.0786 0.50271-4.2049 0.78183-6.3427 0.83262l-0.71297 0.0084692h-5.4366l-0.24176 0.0068464c-0.96349 0.054627-1.8804 0.43442-2.6003 1.0771l-0.17579 0.16611-0.73645 0.73645-0.11648 0.12862c-0.25566 0.31203-0.3971 0.70437-0.3971 1.1113 0 0.66388-0.23975 1.303-0.67131 1.8017l-0.13517 0.14528-0.73947 0.73947-0.18966 0.18049c-0.90369 0.81827-2.0633 1.2986-3.2809 1.359l-0.26173 0.0064869h-0.24727v5.7869l6.0515 2.897 0.34044 0.15454c1.144 0.49147 2.3772 0.7457 3.6249 0.7457 1.2297 0 2.4332-0.34122 3.4776-0.98279l0.25771-0.16662 2.3511-1.5983 0.069799-0.057189c0.1691-0.16614 0.2006-0.43441 0.062609-0.63741-0.074469-0.10955-0.18846-0.18392-0.31585-0.20928l-0.09765-0.0096204h-2.8222l-0.089876-0.0080557c-0.23325-0.042336-0.41012-0.24648-0.41012-0.49194s0.17688-0.44961 0.41012-0.49194l0.089876-0.0080556h2.8222l0.15942 0.0084815c0.26319 0.028102 0.51221 0.12519 0.72304 0.27855l0.12173 0.098669-0.022004 0.015516c0.19584-0.11989 0.49928-0.35578 0.89967-0.70244 0.82735-0.71632 2.0484-1.8866 3.659-3.5077 0.85788-0.86346 1.2166-2.0922 0.97934-3.2652-0.23626 0.14761-0.48192 0.28205-0.73602 0.40232-1.4721 0.69679-3.07 1.084-4.6949 1.1395l-0.40673 0.0069376h-2.304l-0.089876-0.0080557c-0.23325-0.042336-0.41012-0.24648-0.41012-0.49194s0.17688-0.44961 0.41012-0.49194l0.089876-0.0080557h2.304l0.40363-0.0074581c1.4779-0.054638 2.9309-0.40888 4.2702-1.0428 1.2965-0.61365 2.3379-1.6556 2.9517-2.9455l0.11702-0.26124 1.0032-2.3854 0.027417-0.08597c0.051399-0.23142-0.068215-0.47361-0.29448-0.56876-0.076391-0.032127-0.15915-0.044597-0.24082-0.03689zm-62.114 0.014452c-0.10681-0.028288-0.21999-0.020398-0.32184 0.022438-0.25455 0.10705-0.37412 0.40019-0.26706 0.65473l1.0032 2.3854c0.59313 1.4103 1.6858 2.5522 3.0687 3.2067 1.4611 0.69155 3.0574 1.0503 4.6738 1.0503h2.304c0.27614 0 0.5 0.22386 0.5 0.5s-0.22386 0.5-0.5 0.5h-2.304c-1.7644 0-3.5068-0.39154-5.1016-1.1464-0.25371-0.12009-0.49901-0.2543-0.73493-0.40164-0.238 1.1735 0.12079 2.4015 0.97826 3.2645 1.6106 1.621 2.8316 2.7913 3.659 3.5077 0.3849 0.33325 0.68021 0.56413 0.87646 0.68801 0.2726-0.24618 0.62979-0.38679 1.0054-0.38679h2.8222c0.27614 0 0.5 0.22386 0.5 0.5s-0.22386 0.5-0.5 0.5h-2.8222c-0.16558 0-0.32042 0.08197-0.4135 0.2189-0.15524 0.22837-0.095964 0.53935 0.13241 0.6946l2.3511 1.5983c1.1017 0.74895 2.4032 1.1494 3.7353 1.1494 1.3724 0 2.7274-0.30762 3.9653-0.90024l6.0515-2.897v-5.7869h-0.24727c-1.3999 0-2.7424-0.5561-3.7323-1.546l-0.73947-0.73947c-0.51638-0.51638-0.80648-1.2167-0.80648-1.947 0-0.46506-0.18474-0.91107-0.51359-1.2399l-0.73645-0.73645c-0.80038-0.80038-1.8859-1.25-3.0178-1.25h-5.4366c-2.5938 0-5.1767-0.33622-7.684-1.0003zm28.446 4.2514 0.0050874 0.062647-9.709e-4 12.837h5l7.9e-4 -12.821c-0.74852 0.27316-1.5568 0.42219-2.3998 0.42219-0.92069 0-1.7999-0.17775-2.6051-0.5008zm2.6051-12.499c-3.3137 0-6 2.6863-6 6s2.6863 6 6 6 6-2.6863 6-6-2.6863-6-6-6z"/>
</g>
</g>
</g>
</svg>
