<svg width="32" height="32" xmlns="http://www.w3.org/2000/svg"><path fill="none" d="M-1-1h582v402H-1z"/><g><path fill="#fff" d="M1.938 31a.944.944 0 01-.664-.275.943.943 0 01-.245-.895l2.214-8.632a.7.7 0 01.038-.1.944.944 0 01.198-.316c.002-.006 18.17-18.171 18.17-18.171A5.45 5.45 0 0125.535 1c1.463 0 2.838.566 3.871 1.596l.021.021c2.125 2.173 2.092 5.66-.07 7.774L11.234 28.508a.953.953 0 01-.289.194l-.03.012a.547.547 0 01-.112.04L2.17 30.968a.869.869 0 01-.232.031V31zm1.301-2.24l5.514-1.414-4.1-4.091-1.414 5.505zm7.337-2.243L24.238 12.86l-5.092-5.091L5.48 21.43l5.096 5.086zm14.988-14.984l1.292-1.291-5.093-5.091-1.291 1.29 5.092 5.092zm2.616-2.62a3.618 3.618 0 00-.076-4.966l-.021-.022a3.587 3.587 0 00-2.549-1.05c-.915 0-1.776.337-2.444.95l5.09 5.088z" fill-rule="evenodd"/></g></svg>