<?xml version="1.0" encoding="UTF-8"?>
<svg version="1.1" viewBox="0 0 40 63" xmlns="http://www.w3.org/2000/svg">
<title>Icons / Hourglass</title>
<desc>Created with Sketch.</desc>
<g fill="none" fill-rule="evenodd">
<g fill="#fff">
<path d="m36.28-2.8422e-14c2.0086 0 3.3024 2.093 2.4582 3.8733l-0.077629 0.15178-14.632 26.637c-0.25772 0.46948-0.2835 1.0293-0.077368 1.5173l0.077298 0.15979 14.632 26.636c0.96757 1.7606-0.24359 3.9025-2.2102 4.0201l-0.17038 0.0050695h-32.558c-2.0093 0-3.3035-2.0928-2.4592-3.8733l0.077637-0.1518 14.632-26.636c0.25785-0.4704 0.28364-1.0303 0.077509-1.5178l-0.077299-0.15958-14.632-26.637c-0.96767-1.7608 0.24378-3.9025 2.2111-4.0201l0.17045-0.0050691h32.558zm0 0.97467h-32.558c-1.2782 0-2.105 1.32-1.59 2.4558l0.062784 0.12537 14.632 26.637c0.41476 0.75554 0.44439 1.6603 0.088822 2.4382l-0.088891 0.17714-14.632 26.636c-0.61552 1.12 0.14358 2.4801 1.3871 2.5758l0.14012 0.0053559h32.558c1.2774 0 2.1039-1.3201 1.589-2.4559l-0.062778-0.12535-14.632-26.636c-0.41463-0.7564-0.44424-1.6612-0.08868-2.4382l0.08889-0.1769 14.632-26.637c0.63825-1.1614-0.20156-2.5811-1.5263-2.5811zm-9.7557 16.155c0.34271 0 0.56926 0.33955 0.46069 0.64726l-0.034252 0.07605-6.4382 11.632v19.176l7.8575 3.766e-4c0.1485 0 0.28713 0.067528 0.37868 0.18052l0.048981 0.073071 5.5874 10.22c0.16388 0.29978-0.023791 0.66054-0.34476 0.71427l-0.082894 0.0068225h-27.914c-0.34208 0-0.56864-0.33843-0.46114-0.64594l0.033961-0.076021 5.6146-10.22c0.07135-0.12988 0.19694-0.21879 0.33973-0.24481l0.087446-0.0078959 7.8548-3.766e-4 2.643e-4 -19.134c-0.31655-0.57187-0.4025-0.72713-1.8732-3.3839-1.4859-2.6843-3.0409-5.4934-4.5889-8.2898-0.16598-0.29983 0.02144-0.66247 0.34328-0.71649l0.083134-0.0068596h13.047z"/>
</g>
</g>
</svg>
