<?xml version="1.0" encoding="UTF-8"?>
<svg version="1.1" viewBox="0 0 32 32" xmlns="http://www.w3.org/2000/svg">
<title>Icons / Question</title>
<desc>Created with Sketch.</desc>
<g fill="none" fill-rule="evenodd">
<path d="m14.5 32c-1.933 0-3.5-1.567-3.5-3.5s1.567-3.5 3.5-3.5 3.5 1.567 3.5 3.5-1.567 3.5-3.5 3.5zm4.799-14.4c-0.86583 0.36524-1.4253 1.1918-1.4249 2.1049 0 1.2677-1.0632 2.2954-2.3748 2.2954s-2.3748-1.0277-2.3748-2.2954c-4.293e-4 -2.7385 1.678-5.217 4.2747-6.3124 2.1739-0.91703 3.3146-3.2436 2.6724-5.4505-0.64221-2.2069-2.8705-3.6176-5.2202-3.3049-2.3497 0.31276-4.1005 2.2531-4.1017 4.5457 0 1.2677-1.0632 2.2954-2.3748 2.2954s-2.3748-1.0277-2.3748-2.2954c-7.182e-5 -4.5857 3.5004-8.4684 8.2002-9.0955 4.6998-0.62711 9.1577 2.1936 10.443 6.6079 1.2854 4.4142-0.996 9.0683-5.3443 10.903v0.0022954z" fill="#fff"/>
</g>
</svg>
