<?xml version="1.0" encoding="UTF-8"?>
<svg version="1.1" viewBox="0 0 74 58" xmlns="http://www.w3.org/2000/svg">
<title>Icons / recovery-new</title>
<desc>Created with Sketch.</desc>
<g fill="none" fill-rule="evenodd">
<g fill="#fff">
<g transform="translate(1 1)">
<path d="m52.15 12.1c-0.63433 0-1.1502-0.58077-1.1502-1.2929 0-0.51603 0.27572-0.95398 0.66477-1.1615v-6.099c0-0.30086 0.21652-0.54649 0.48547-0.54649 0.26726 0 0.48378 0.24564 0.48378 0.54649v6.099c0.39075 0.20755 0.66477 0.64551 0.66477 1.1615 0 0.085687-0.030448 0.16185-0.045672 0.24373l3.5505 2.9667c0.21483 0.17899 0.2605 0.52174 0.10149 0.76357-0.094726 0.14472-0.24189 0.21898-0.39075 0.21898-0.099801 0-0.20129-0.034275-0.28756-0.10663l-3.5438-2.961c-0.1607 0.097112-0.33831 0.16757-0.53283 0.16757zm-0.15025 7.9c-5.5137 0-10-4.4878-10-10.001 0-5.5132 4.4863-9.9991 10-9.9991s10 4.4859 10 9.9991c0 5.5132-4.4863 10.001-10 10.001zm0-19c-4.964 0-9 4.0378-9 9 0 4.964 4.036 9 9 9 4.9622 0 9-4.036 9-9 0-4.9622-4.0378-9-9-9zm18.476 26.7c0.29045 0 0.52428 0.23628 0.52428 0.52567v27.249c0 0.29122-0.23382 0.52567-0.52428 0.52567-0.28863 0-0.52245-0.23444-0.52245-0.52567v-8.2294h-68.907v8.2294c0 0.29122-0.23382 0.52567-0.52245 0.52567s-0.52428-0.23444-0.52428-0.52567v-32.949c0-0.28939 0.23565-0.52567 0.52428-0.52567s0.52245 0.23628 0.52245 0.52567v14.823c1.0979-1.7309 2.963-2.9196 5.1131-3.0881v-0.57695c0-1.9708 1.6002-3.5771 3.5676-3.5771h10.975c1.9674 0 3.5676 1.6063 3.5676 3.5771v0.54948h40.048c2.3693 0 4.4481 1.2455 5.6355 3.1156v-9.1232c0-0.28939 0.23382-0.52567 0.52245-0.52567zm-63.854 7.3001c-2.938 0-5.358 2.2008-5.6216 5h69c-0.26726-2.7992-2.6872-5-5.6234-5h-57.755zm-5.6216 10h69v-4h-69v4z"/>
</g>
</g>
</g>
</svg>
