<svg width="96" height="113" xmlns="http://www.w3.org/2000/svg"><g fill="#fffff" fill-rule="nonzero"><path d="M57 14.476a9 9 0 019 9v1a9 9 0 01-9 9H31a9 9 0 01-9-9v-1a9 9 0 019-9h26zm0 6H31a3 3 0 00-2.995 2.824l-.005.176v1a3 3 0 002.824 2.995l.176.005h26a3 3 0 002.995-2.823l.005-.177v-1a3 3 0 00-2.824-2.994L57 20.476z"/><path d="M52.715 18.5h-6v-3.285a2.715 2.715 0 00-5.425-.165l-.005.165v3.238h-6v-3.238a8.715 8.715 0 0117.426-.262l.004.262V18.5zM25.82 21.476v6H20c-3.282 0-5.877 2.343-5.996 5.17l-.004.203v63.255c0 2.849 2.518 5.258 5.767 5.368l.233.004h49c3.282 0 5.877-2.342 5.996-5.169l.004-.203V77.091h6v19.013c0 6.234-5.254 11.217-11.697 11.369l-.303.003H20c-6.48 0-11.833-4.887-11.996-11.08L8 96.104V32.85c0-6.234 5.254-11.217 11.697-11.369l.303-.004h5.82zm43.112 0c6.522 0 11.9 4.951 12.064 11.212l.004.294v14.785h-6V32.982c0-2.926-2.552-5.389-5.832-5.502l-.236-.004H63v-6h5.932z"/><path d="M71.613 53.775L61.7 67.954l-2.418-2.94a2.213 2.213 0 00-3.15-.279 2.24 2.24 0 00-.273 3.122l3.325 4.044a3.338 3.338 0 005.33-.211l10.732-15.349a2.24 2.24 0 00-.515-3.09 2.213 2.213 0 00-3.118.524z"/><path d="M66 40.476c12.15 0 22 9.85 22 22s-9.85 22-22 22-22-9.85-22-22 9.85-22 22-22zm0 6c-8.837 0-16 7.164-16 16 0 8.837 7.163 16 16 16s16-7.163 16-16c0-8.836-7.163-16-16-16z"/></g></svg>